<svg width="40" height="40" viewBox="0 0 40 40" fill="none" xmlns="http://www.w3.org/2000/svg">
<path d="M16.182 11.5685L18.7509 15.5311C19.1194 16.0996 18.8133 16.4785 18.6142 16.597L16.8652 17.5808C16.4716 18.0618 16.7741 18.9654 16.9745 19.3571C17.0747 19.4573 17.4719 20.013 18.2589 21.4341C19.046 22.8552 20.3541 24.3947 20.9098 24.9868C21.4782 25.5553 21.9483 25.3148 22.1123 25.1235L23.0688 24.2763C23.7247 23.686 24.1983 24.1579 24.3532 24.4676C25.1002 25.6518 26.6543 28.1296 26.8948 28.5669C27.1353 29.0041 26.8674 29.2774 26.7035 29.3594L25.1184 30.0973C23.1726 30.8844 20.6821 29.3321 19.68 28.4576C18.5595 27.6286 15.8267 24.8338 13.859 20.2863C11.8914 15.7388 13.1121 13.0898 13.9683 12.3337C14.1505 12.2062 14.6461 11.8418 15.1708 11.4045C15.6955 10.9673 16.0635 11.3316 16.182 11.5685Z" fill="white" stroke="white" stroke-width="0.0956502"/>
<circle cx="20" cy="20" r="19" stroke="white" stroke-width="2"/>
</svg>
