<svg width="511" height="193" viewBox="0 0 511 193" fill="none" xmlns="http://www.w3.org/2000/svg">
<path d="M182.522 162.008C185.412 162.008 187.676 162.698 189.315 164.079C190.954 165.459 191.774 167.356 191.774 169.772C191.774 172.187 190.954 174.085 189.315 175.465C187.676 176.824 185.412 177.503 182.522 177.503H176.441V184.652H174.047V162.008H182.522ZM182.457 175.4C184.7 175.4 186.415 174.915 187.601 173.945C188.787 172.953 189.38 171.562 189.38 169.772C189.38 167.939 188.787 166.537 187.601 165.567C186.415 164.575 184.7 164.079 182.457 164.079H176.441V175.4H182.457ZM212.412 184.652L207.236 177.373C206.654 177.438 206.05 177.471 205.425 177.471H199.343V184.652H196.95V162.008H205.425C208.314 162.008 210.579 162.698 212.218 164.079C213.857 165.459 214.676 167.356 214.676 169.772C214.676 171.54 214.223 173.039 213.317 174.268C212.433 175.476 211.161 176.349 209.5 176.888L215.032 184.652H212.412ZM205.36 175.433C207.603 175.433 209.317 174.937 210.503 173.945C211.689 172.953 212.282 171.562 212.282 169.772C212.282 167.939 211.689 166.537 210.503 165.567C209.317 164.575 207.603 164.079 205.36 164.079H199.343V175.433H205.36ZM230.224 184.846C227.981 184.846 225.944 184.35 224.111 183.358C222.299 182.344 220.876 180.964 219.841 179.217C218.827 177.471 218.32 175.508 218.32 173.33C218.32 171.152 218.827 169.189 219.841 167.443C220.876 165.696 222.299 164.327 224.111 163.335C225.944 162.321 227.981 161.814 230.224 161.814C232.467 161.814 234.483 162.31 236.273 163.302C238.085 164.294 239.508 165.674 240.543 167.443C241.578 169.189 242.096 171.152 242.096 173.33C242.096 175.508 241.578 177.481 240.543 179.25C239.508 180.996 238.085 182.366 236.273 183.358C234.483 184.35 232.467 184.846 230.224 184.846ZM230.224 182.711C232.014 182.711 233.632 182.312 235.076 181.514C236.521 180.695 237.653 179.573 238.473 178.15C239.292 176.705 239.702 175.098 239.702 173.33C239.702 171.562 239.292 169.966 238.473 168.543C237.653 167.098 236.521 165.976 235.076 165.178C233.632 164.359 232.014 163.949 230.224 163.949C228.434 163.949 226.806 164.359 225.34 165.178C223.895 165.976 222.752 167.098 221.911 168.543C221.091 169.966 220.682 171.562 220.682 173.33C220.682 175.098 221.091 176.705 221.911 178.15C222.752 179.573 223.895 180.695 225.34 181.514C226.806 182.312 228.434 182.711 230.224 182.711ZM247.461 162.008H256.68C259.074 162.008 261.188 162.494 263.021 163.464C264.854 164.413 266.277 165.75 267.291 167.475C268.304 169.179 268.811 171.13 268.811 173.33C268.811 175.53 268.304 177.492 267.291 179.217C266.277 180.921 264.854 182.258 263.021 183.228C261.188 184.177 259.074 184.652 256.68 184.652H247.461V162.008ZM256.551 182.581C258.535 182.581 260.271 182.193 261.759 181.417C263.247 180.619 264.401 179.53 265.22 178.15C266.04 176.748 266.449 175.141 266.449 173.33C266.449 171.519 266.04 169.923 265.22 168.543C264.401 167.141 263.247 166.052 261.759 165.275C260.271 164.477 258.535 164.079 256.551 164.079H249.855V182.581H256.551ZM292.527 162.008V184.652H290.231V180.835C288.743 183.509 286.209 184.846 282.629 184.846C279.933 184.846 277.82 184.037 276.289 182.42C274.758 180.802 273.992 178.495 273.992 175.497V162.008H276.386V175.433C276.386 177.826 276.968 179.638 278.133 180.867C279.319 182.096 280.968 182.711 283.082 182.711C285.303 182.711 287.028 182.064 288.257 180.77C289.508 179.455 290.134 177.492 290.134 174.883V162.008H292.527ZM309.734 184.846C307.491 184.846 305.464 184.35 303.652 183.358C301.863 182.366 300.45 180.996 299.415 179.25C298.401 177.481 297.895 175.508 297.895 173.33C297.895 171.152 298.401 169.189 299.415 167.443C300.45 165.674 301.873 164.294 303.685 163.302C305.496 162.31 307.523 161.814 309.766 161.814C311.448 161.814 313.001 162.095 314.424 162.655C315.848 163.216 317.055 164.035 318.047 165.114L316.527 166.634C314.759 164.844 312.527 163.949 309.831 163.949C308.041 163.949 306.413 164.359 304.946 165.178C303.48 165.998 302.326 167.119 301.485 168.543C300.666 169.966 300.256 171.562 300.256 173.33C300.256 175.098 300.666 176.694 301.485 178.117C302.326 179.541 303.48 180.662 304.946 181.482C306.413 182.301 308.041 182.711 309.831 182.711C312.548 182.711 314.78 181.805 316.527 179.994L318.047 181.514C317.055 182.592 315.837 183.423 314.392 184.005C312.969 184.565 311.416 184.846 309.734 184.846ZM337.448 166.181C335.227 164.887 332.768 164.143 330.073 163.949V184.652H327.679V163.949C325.026 164.122 322.557 164.866 320.271 166.181L319.398 164.305C322.201 162.644 325.35 161.814 328.843 161.814C332.402 161.814 335.561 162.644 338.321 164.305L337.448 166.181ZM346.636 164.079V182.581H351.23V184.652H339.682V182.581H344.275V164.079H339.682V162.008H351.23V164.079H346.636ZM366.091 184.846C363.848 184.846 361.811 184.35 359.978 183.358C358.166 182.344 356.743 180.964 355.708 179.217C354.694 177.471 354.187 175.508 354.187 173.33C354.187 171.152 354.694 169.189 355.708 167.443C356.743 165.696 358.166 164.327 359.978 163.335C361.811 162.321 363.848 161.814 366.091 161.814C368.334 161.814 370.35 162.31 372.14 163.302C373.952 164.294 375.375 165.674 376.41 167.443C377.445 169.189 377.963 171.152 377.963 173.33C377.963 175.508 377.445 177.481 376.41 179.25C375.375 180.996 373.952 182.366 372.14 183.358C370.35 184.35 368.334 184.846 366.091 184.846ZM366.091 182.711C367.881 182.711 369.499 182.312 370.943 181.514C372.388 180.695 373.52 179.573 374.34 178.15C375.159 176.705 375.569 175.098 375.569 173.33C375.569 171.562 375.159 169.966 374.34 168.543C373.52 167.098 372.388 165.976 370.943 165.178C369.499 164.359 367.881 163.949 366.091 163.949C364.301 163.949 362.673 164.359 361.207 165.178C359.762 165.976 358.619 167.098 357.778 168.543C356.958 169.966 356.549 171.562 356.549 173.33C356.549 175.098 356.958 176.705 357.778 178.15C358.619 179.573 359.762 180.695 361.207 181.514C362.673 182.312 364.301 182.711 366.091 182.711ZM393.291 161.814C396.009 161.814 398.133 162.623 399.664 164.24C401.217 165.858 401.993 168.165 401.993 171.163V184.652H399.599V171.227C399.599 168.834 399.006 167.022 397.82 165.793C396.634 164.564 394.974 163.949 392.839 163.949C390.596 163.949 388.849 164.607 387.598 165.922C386.347 167.216 385.722 169.168 385.722 171.777V184.652H383.328V162.008H385.625V165.825C387.07 163.151 389.625 161.814 393.291 161.814Z" fill="black"/>
<circle cx="155.534" cy="173.869" r="6.73912" fill="black"/>
<circle cx="139.358" cy="173.869" r="6.73912" fill="black"/>
<path d="M119.14 173.869C119.14 177.591 116.123 180.608 112.401 180.608C108.679 180.608 105.662 177.591 105.662 173.869C105.662 170.147 108.679 167.13 112.401 167.13C116.123 167.13 119.14 170.147 119.14 173.869ZM106.87 173.869C106.87 176.924 109.347 179.4 112.401 179.4C115.456 179.4 117.932 176.924 117.932 173.869C117.932 170.815 115.456 168.338 112.401 168.338C109.347 168.338 106.87 170.815 106.87 173.869Z" fill="black"/>
<path d="M56.1714 113.58L78.6854 48.8846H68.5929V46.4262H88.3898V48.8846H82.3084L51.1251 138.294H40.2563L7.26154 48.8846H1.30955V46.4262H43.6204V48.8846H34.4337L56.1714 113.58ZM91.8277 46.4262H138.409V49.2728H124.693V134.153H129.351C136.683 134.153 142.506 131.911 146.819 127.425C151.218 122.939 155.661 116.039 160.146 106.722H162.863L160.405 137H91.8277V134.153H99.4618V49.2728H91.8277V46.4262ZM222.086 134.542L212.641 106.593H187.021L177.058 134.542H186.762V137H166.966V134.542H173.047L206.042 45.6499H216.652L249.258 134.542H255.21V137H212.899V134.542H222.086ZM200.348 69.846L188.186 103.746H211.606L200.348 69.846ZM296.819 135.577C301.132 135.577 304.927 134.412 308.205 132.083C311.569 129.754 313.251 126.261 313.251 121.602C313.251 116.858 311.44 113.235 307.817 110.734C304.28 108.232 299.191 106.076 292.549 104.264C285.993 102.366 281.205 100.727 278.186 99.3472C275.253 97.967 272.45 96.1555 269.776 93.9128C264.428 89.4272 261.754 82.4832 261.754 73.0808C261.754 65.4036 264.471 58.8046 269.905 53.2839C275.426 47.7632 282.931 45.0029 292.419 45.0029C296.991 45.0029 301.736 45.693 306.652 47.0732C311.656 48.3671 314.761 49.014 315.969 49.014C317.176 49.014 318.254 48.1514 319.203 46.4262H320.627L321.532 72.5632H319.462C315.322 65.0585 310.965 59.0634 306.394 54.5778C301.908 50.006 296.991 47.7201 291.643 47.7201C286.381 47.7201 282.284 48.9709 279.351 51.4725C276.418 53.8878 274.952 57.1657 274.952 61.3062C274.952 65.3604 276.677 68.509 280.127 70.7517C283.664 72.9083 287.977 74.6766 293.066 76.0568C298.156 77.4369 301.477 78.3858 303.029 78.9034C304.668 79.4209 306.652 80.1542 308.981 81.103C311.397 81.9656 313.338 82.9145 314.804 83.9496C316.357 84.8985 317.953 86.1493 319.592 87.702C321.317 89.1684 322.654 90.8074 323.603 92.6188C325.932 96.7594 327.096 101.676 327.096 107.369C327.096 116.686 324.163 124.19 318.298 129.883C312.518 135.49 304.884 138.294 295.395 138.294C290.478 138.294 284.828 137.647 278.445 136.353C272.148 135.059 268.655 134.412 267.964 134.412C266.757 134.412 265.592 135.706 264.471 138.294H262.659L261.365 107.499H263.565C267.361 115.004 272.191 121.559 278.057 127.166C284.009 132.773 290.263 135.577 296.819 135.577ZM395.912 97.0181V87.4432C395.912 71.6575 395.136 61.6944 393.583 57.5538C391.858 52.8095 389.399 49.8766 386.208 48.7552C384.396 48.0652 382.197 47.7201 379.609 47.7201C377.021 47.7201 374.778 48.0652 372.88 48.7552C371.069 49.4453 369.559 50.653 368.352 52.3782C367.144 54.1034 366.152 55.9149 365.376 57.8126C364.686 59.7104 364.125 62.3844 363.694 65.8349C363.176 70.838 362.917 78.2133 362.917 87.9608V97.2769C362.917 107.801 363.305 115.305 364.082 119.791C364.944 124.19 365.98 127.339 367.187 129.237C369.861 133.463 374.002 135.577 379.609 135.577C386.423 135.577 390.823 132.73 392.807 127.037C394.877 121.257 395.912 111.251 395.912 97.0181ZM379.35 138.294C364.944 138.294 354.162 134.412 347.002 126.649C339.929 118.799 336.392 107.499 336.392 92.7482C336.392 77.9114 340.188 66.2662 347.779 57.8126C355.456 49.2728 366.281 45.0029 380.256 45.0029C394.23 45.0029 404.754 49.0572 411.827 57.1657C418.987 65.1879 422.567 76.6175 422.567 91.4543C422.567 106.291 418.944 117.807 411.698 126.002C404.538 134.197 393.756 138.294 379.35 138.294ZM476.44 113.58L498.954 48.8846H488.861V46.4262H508.658V48.8846H502.577L471.394 138.294H460.525L427.53 48.8846H421.578V46.4262H463.889V48.8846H454.702L476.44 113.58Z" fill="black"/>
</svg>
