<svg width="40" height="40" viewBox="0 0 40 40" fill="none" xmlns="http://www.w3.org/2000/svg">
<path fill-rule="evenodd" clip-rule="evenodd" d="M20 40C31.0457 40 40 31.0457 40 20C40 8.9543 31.0457 0 20 0C8.9543 0 0 8.9543 0 20C0 31.0457 8.9543 40 20 40ZM13.5319 20.8894L22.2973 15.0869L23.0381 14.5931C23.4496 14.4285 24.1492 14.3709 23.6554 15.4573L15.8776 22.9882C15.4249 23.3997 14.9146 24.4697 16.4949 25.4573C18.0751 26.445 22.3385 29.3256 24.2726 30.6425C25.0957 31.2186 26.8652 31.6795 27.3591 28.9141C27.8529 26.1487 29.0463 19.0376 29.5813 15.8277L30.0751 12.0005L30.1986 10.766C30.322 10.0252 30.0504 8.69188 27.9763 9.28447L24.8899 10.3956L4.88993 19.0376C4.27264 19.2845 3.33437 19.9758 4.51956 20.766L9.21085 22.124C9.82818 22.3297 11.5566 22.3708 13.5319 20.8894Z" fill="white"/>
</svg>
